<svg width="101" height="57" viewBox="0 0 101 57" fill="none" xmlns="http://www.w3.org/2000/svg">
    <circle cx="50.5" cy="27.5" r="49" fill="#404040" stroke="#D2AC47" stroke-width="3" />
    <g filter="url(#filter0_d_2_179)">
        <path
            d="M52.373 16L46.693 44H39.173L33.493 16H39.253L41.453 28.96L42.813 37.36H43.053L44.413 28.96L46.613 16H52.373ZM56.6792 16H66.2792V20.8H58.5992L58.4792 21.04L64.8792 32.72C66.1859 35.0667 66.8392 36.8533 66.8392 38.08C66.8392 40.7733 65.9459 42.7467 64.1592 44H53.5592V39.36H61.8392L61.9592 39.12L54.7592 26.2C53.7192 24.3333 53.1992 22.8133 53.1992 21.64C53.1992 18.8667 54.3592 16.9867 56.6792 16Z"
            fill="#D2AC47" />
        <path
            d="M52.373 16L53.353 16.1988L53.5962 15H52.373V16ZM46.693 44V45H47.5105L47.673 44.1988L46.693 44ZM39.173 44L38.1929 44.1988L38.3555 45H39.173V44ZM33.493 16V15H32.2697L32.5129 16.1988L33.493 16ZM39.253 16L40.2389 15.8326L40.0975 15H39.253V16ZM41.453 28.96L42.4401 28.8002L42.4389 28.7926L41.453 28.96ZM42.813 37.36L41.8258 37.5198L41.9619 38.36H42.813V37.36ZM43.053 37.36V38.36H43.9041L44.0401 37.5198L43.053 37.36ZM44.413 28.96L43.427 28.7926L43.4258 28.8002L44.413 28.96ZM46.613 16V15H45.7684L45.6271 15.8326L46.613 16ZM51.3929 15.8012L45.7129 43.8012L47.673 44.1988L53.353 16.1988L51.3929 15.8012ZM46.693 43H39.173V45H46.693V43ZM40.153 43.8012L34.473 15.8012L32.5129 16.1988L38.1929 44.1988L40.153 43.8012ZM33.493 17H39.253V15H33.493V17ZM38.2671 16.1674L40.4671 29.1274L42.4389 28.7926L40.2389 15.8326L38.2671 16.1674ZM40.4658 29.1198L41.8258 37.5198L43.8001 37.2002L42.4401 28.8002L40.4658 29.1198ZM42.813 38.36H43.053V36.36H42.813V38.36ZM44.0401 37.5198L45.4001 29.1198L43.4258 28.8002L42.0658 37.2002L44.0401 37.5198ZM45.3989 29.1274L47.5989 16.1674L45.6271 15.8326L43.4271 28.7926L45.3989 29.1274ZM46.613 17H52.373V15H46.613V17ZM56.6792 16V15H56.4754L56.2879 15.0798L56.6792 16ZM66.2792 16H67.2792V15H66.2792V16ZM66.2792 20.8V21.8H67.2792V20.8H66.2792ZM58.5992 20.8V19.8H57.9812L57.7048 20.3528L58.5992 20.8ZM58.4792 21.04L57.5848 20.5928L57.3506 21.0612L57.6022 21.5205L58.4792 21.04ZM64.8792 32.72L64.0022 33.2005L64.0055 33.2065L64.8792 32.72ZM64.1592 44V45H64.475L64.7335 44.8187L64.1592 44ZM53.5592 44H52.5592V45H53.5592V44ZM53.5592 39.36V38.36H52.5592V39.36H53.5592ZM61.8392 39.36V40.36H62.4573L62.7336 39.8072L61.8392 39.36ZM61.9592 39.12L62.8536 39.5672L63.0899 39.0947L62.8327 38.6332L61.9592 39.12ZM54.7592 26.2L53.8857 26.6867L53.8857 26.6868L54.7592 26.2ZM56.6792 17H66.2792V15H56.6792V17ZM65.2792 16V20.8H67.2792V16H65.2792ZM66.2792 19.8H58.5992V21.8H66.2792V19.8ZM57.7048 20.3528L57.5848 20.5928L59.3736 21.4872L59.4936 21.2472L57.7048 20.3528ZM57.6022 21.5205L64.0022 33.2005L65.7562 32.2395L59.3562 20.5595L57.6022 21.5205ZM64.0055 33.2065C65.306 35.542 65.8392 37.1317 65.8392 38.08H67.8392C67.8392 36.575 67.0658 34.5914 65.7529 32.2335L64.0055 33.2065ZM65.8392 38.08C65.8392 40.5334 65.0413 42.1597 63.5849 43.1813L64.7335 44.8187C66.8505 43.3336 67.8392 41.0132 67.8392 38.08H65.8392ZM64.1592 43H53.5592V45H64.1592V43ZM54.5592 44V39.36H52.5592V44H54.5592ZM53.5592 40.36H61.8392V38.36H53.5592V40.36ZM62.7336 39.8072L62.8536 39.5672L61.0648 38.6728L60.9448 38.9128L62.7336 39.8072ZM62.8327 38.6332L55.6327 25.7132L53.8857 26.6868L61.0857 39.6068L62.8327 38.6332ZM55.6328 25.7133C54.6178 23.8915 54.1992 22.5542 54.1992 21.64H52.1992C52.1992 23.0725 52.8206 24.7751 53.8857 26.6867L55.6328 25.7133ZM54.1992 21.64C54.1992 20.3918 54.4597 19.4215 54.9203 18.6751C55.3767 17.9354 56.0731 17.3445 57.0706 16.9202L56.2879 15.0798C54.9653 15.6422 53.9217 16.4846 53.2182 17.6249C52.5187 18.7585 52.1992 20.1149 52.1992 21.64H54.1992Z"
            fill="#D2AC47" />
    </g>
    <defs>
        <filter id="filter0_d_2_179" x="29.4929" y="16" width="41.3463" height="36"
            filterUnits="userSpaceOnUse" color-interpolation-filters="sRGB">
            <feFlood flood-opacity="0" result="BackgroundImageFix" />
            <feColorMatrix in="SourceAlpha" type="matrix"
                values="0 0 0 0 0 0 0 0 0 0 0 0 0 0 0 0 0 0 127 0" result="hardAlpha" />
            <feOffset dy="4" />
            <feGaussianBlur stdDeviation="2" />
            <feComposite in2="hardAlpha" operator="out" />
            <feColorMatrix type="matrix" values="0 0 0 0 0 0 0 0 0 0 0 0 0 0 0 0 0 0 0.25 0" />
            <feBlend mode="normal" in2="BackgroundImageFix" result="effect1_dropShadow_2_179" />
            <feBlend mode="normal" in="SourceGraphic" in2="effect1_dropShadow_2_179" result="shape" />
        </filter>
    </defs>
</svg>